<svg class="svg-icon" style="width: 1em; height: 1em;vertical-align: middle;fill: currentColor;overflow: hidden;" viewBox="0 0 1024 1024" version="1.1" xmlns="http://www.w3.org/2000/svg"><path d="M768 298.666667V128a42.666667 42.666667 0 0 0-42.666667-42.666667h-170.666666c-73.770667 0-213.333333 44.586667-213.333334 213.333334v42.666666H298.666667a42.666667 42.666667 0 0 0-42.666667 42.666667v170.666667a42.666667 42.666667 0 0 0 42.666667 42.666666h42.666666v298.666667a42.666667 42.666667 0 0 0 42.666667 42.666667h170.666667a42.666667 42.666667 0 0 0 42.666666-42.666667v-298.666667h85.333334a42.666667 42.666667 0 0 0 42.666666-42.666666V384a42.666667 42.666667 0 0 0-42.666666-42.666667h42.666666a42.666667 42.666667 0 0 0 42.666667-42.666666z m-85.333333-42.666667h-128a42.666667 42.666667 0 0 0-42.666667 42.666667v85.333333a42.666667 42.666667 0 0 0 42.666667 42.666667h85.333333v85.333333h-85.333333a42.666667 42.666667 0 0 0-42.666667 42.666667v298.666666h-85.333333v-298.666666a42.666667 42.666667 0 0 0-42.666667-42.666667H341.333333v-85.333333h42.666667a42.666667 42.666667 0 0 0 42.666667-42.666667V298.666667c0-120.448 106.837333-127.744 128-128h128v85.333333z" fill="" /></svg>