<svg class="svg-icon" style="width: 1em; height: 1em;vertical-align: middle;fill: currentColor;overflow: hidden;" viewBox="0 0 1024 1024" version="1.1" xmlns="http://www.w3.org/2000/svg"><path d="M902.742 299.192a16.726 16.726 0 0 0-19.845-12.882l-48.604 10.354a977.243 977.243 0 0 0 10.993-15.824 497.704 497.704 0 0 0 12.635-19.619 245.948 245.948 0 0 0 6.018-10.445l2.893-5.658c0.96-1.954 1.868-4.224 2.775-6.345a15.357 15.357 0 0 0-20.006-20.236l-2.683 1.117c-3.817 1.342-7.569 2.737-11.364 4.02-3.87 1.154-7.665 2.4-11.546 3.473-3.923 0.988-7.772 2.083-11.707 2.974-3.966 0.832-7.863 1.776-11.835 2.517-4.005 0.692-7.94 1.487-11.954 2.099-4.026 0.569-8.009 1.213-12.035 1.723-2.667 0.338-5.346 0.612-8.019 0.896a145.422 145.422 0 0 0-35.464-25.894c-17.5-9.087-36.63-14.423-55.739-16.28-19.125-1.873-38.266-0.37-56.591 3.924a183.21 183.21 0 0 0-52.083 21.095c-16.173 9.667-30.956 21.938-43.371 36.592-12.405 14.621-22.357 31.696-28.712 50.123-6.404 18.406-9.109 38.02-8.422 57.113 0.167 5.373 0.634 10.687 1.315 15.947-2.603-0.295-5.212-0.574-7.815-0.929a380.811 380.811 0 0 1-22.158-3.462 394.402 394.402 0 0 1-21.986-4.573 446.351 446.351 0 0 1-43.253-12.475 464.161 464.161 0 0 1-41.992-16.774C297.104 316.648 246.59 280.695 201.7 238.355a16.168 16.168 0 0 0-27.027 5.158l-0.408 1.068c-1.814 4.745-3.542 9.539-4.911 14.445-1.369 4.9-2.577 9.86-3.42 14.879-0.939 5.003-1.556 10.064-1.937 15.126-0.44 5.067-0.553 10.145-0.51 15.212 0.08 5.062 0.36 10.124 0.837 15.164a201.57 201.57 0 0 0 2.126 14.997 197.998 197.998 0 0 0 7.756 29.2 189.76 189.76 0 0 0 5.508 14.102 176.362 176.362 0 0 0 6.564 13.709 175.729 175.729 0 0 0 7.644 13.263 164.423 164.423 0 0 0 8.787 12.76 162.369 162.369 0 0 0 4.836 6.15c-4.036 0.543-8.09 0.988-12.158 1.283-3.65 0.264-7.31 0.403-10.789 0.339-1.793 0-3.494-0.075-5.105-0.215-1.776-0.07-3.027-0.338-4.589-0.494a10.204 10.204 0 0 0-14.675 8.948l-0.016 0.805c-0.113 5.078-0.097 10.199 0.36 15.352a116.07 116.07 0 0 0 2.393 15.427 113.72 113.72 0 0 0 11.246 29.586c5.099 9.33 11.449 17.94 18.54 25.685a171.992 171.992 0 0 0 23.134 20.912c15.09 11.412 31.38 20.462 47.998 28.192-0.896 0.263-1.787 0.547-2.689 0.794-2.045 0.537-4.085 1.165-6.151 1.583-2.061 0.435-4.133 1.01-6.21 1.353-4.16 0.8-8.353 1.45-12.561 1.938-4.208 0.461-8.411 0.714-12.636 0.848a15.888 15.888 0 0 0-16.011 23.366l0.697 1.272c8.492 15.518 19.818 28.862 32.207 40.413 12.431 11.573 26.006 21.45 40.112 30.15a356.372 356.372 0 0 0 40.93 21.466c-1.053 0.692-2.073 1.422-3.13 2.099a311.944 311.944 0 0 1-46.023 24.417c-15.937 6.769-32.4 12.067-49.034 15.245-4.144 0.773-8.31 1.422-12.49 1.959a206.8 206.8 0 0 1-12.486 1.079 187.9 187.9 0 0 1-12.415 0.112 169.64 169.64 0 0 1-12.27-0.917h-0.012l-0.171-0.033a19.828 19.828 0 0 0-11.863 37.258c16.146 8.33 32.791 16.323 50.118 23.3a384.853 384.853 0 0 0 53.656 17.312 397.425 397.425 0 0 0 55.652 9.21c9.313 0.757 18.631 1.455 27.912 1.707 4.622 0.253 9.35 0.264 14.064 0.296 4.675 0.021 9.56 0.123 13.891-0.032l13.355-0.301 14.181-0.784c9.276-0.354 18.519-1.497 27.778-2.367 18.47-2.254 36.93-5.137 55.127-9.506 18.26-4.037 36.22-9.587 53.907-15.9 17.687-6.365 34.869-14.165 51.697-22.689 16.623-8.92 32.914-18.566 48.314-29.586 15.298-11.122 30.258-22.834 43.887-36.023 13.72-13.06 26.768-26.887 38.497-41.777 6.119-7.262 11.45-15.1 17.096-22.7 5.174-7.922 10.655-15.668 15.352-23.88 9.914-16.136 18.362-33.082 26.081-50.296 7.676-17.262 14.037-35.008 19.678-52.963 5.314-18.03 10.075-36.237 13.398-54.686 1.879-9.11 3.242-18.626 4.616-28.122 0.784-4.879 1.203-9.221 1.68-13.644l0.317-2.856c1.278-1.16 2.62-2.276 3.833-3.467l6.57-6.377c2.222-2.088 4.235-4.38 6.366-6.56 2.072-2.222 4.235-4.353 6.205-6.656l6.006-6.822c2.024-2.244 3.86-4.654 5.792-6.967 1.916-2.335 3.843-4.649 5.636-7.07a346.716 346.716 0 0 0 20.633-29.543 329.035 329.035 0 0 0 9.163-15.534c1.444-2.679 2.893-5.298 4.267-8.052a215.492 215.492 0 0 0 4.203-8.685l0.977-2.115a16.747 16.747 0 0 0 1.16-10.483z m-74 44.504c-1.862 1.873-3.832 3.634-5.78 5.41-1.96 1.756-3.838 3.602-5.878 5.277l-6.001 5.1c-1.97 1.728-4.106 3.263-6.14 4.905-2.083 1.584-4.064 3.296-6.206 4.778l-6.34 4.567c-4.197 3.05-8.63 5.744-12.903 8.632a25.132 25.132 0 0 0-10.87 18.373l-0.08 0.897-1.213 13.306c-0.397 4.44-0.773 8.97-1.364 12.899-1.062 8.148-2.045 16.285-3.628 24.664-2.695 16.683-6.688 33.055-11.144 49.27-4.75 16.114-10.134 32.04-16.666 47.462-6.586 15.378-13.774 30.531-22.287 44.9-3.983 7.354-8.733 14.22-13.145 21.316-4.869 6.758-9.415 13.779-14.692 20.236-10.064 13.306-21.342 25.63-33.2 37.343-11.76 11.836-24.771 22.34-38.078 32.416-13.413 9.967-27.686 18.744-42.286 26.95-14.826 7.81-29.995 15.063-45.744 21.031-15.749 5.926-31.798 11.24-48.266 15.17-16.382 4.256-33.135 7.16-49.973 9.522-8.46 0.928-16.887 2.152-25.417 2.614l-12.48 0.934-13.349 0.542c-4.568 0.242-8.588 0.183-12.823 0.247-4.192 0.043-8.374 0.118-12.652-0.038-8.535-0.086-16.989-0.569-25.443-1.1a355.299 355.299 0 0 1-49.844-7.332 297.72 297.72 0 0 1-12.18-2.942 313.817 313.817 0 0 0 26.57-7.88 360.951 360.951 0 0 0 55.105-24.594c17.639-9.71 34.568-20.768 50.671-33.656a26.914 26.914 0 0 0-9.522-46.903l-2.067-0.569-0.005-0.01c-28.094-4.687-56.157-12.84-82.05-24.676-12.92-5.937-25.304-12.866-36.512-20.998-0.45-0.328-0.864-0.687-1.315-1.015 1.38-0.091 2.76-0.188 4.139-0.268a194.214 194.214 0 0 0 15.695-1.718 195.792 195.792 0 0 0 31.32-7.268 149.855 149.855 0 0 0 15.669-5.942c2.614-1.068 5.233-2.474 7.853-3.768 2.62-1.315 5.25-2.952 7.874-4.45a25.83 25.83 0 0 0-4.444-46.849l-5.685-1.96c-17.633-2.549-34.965-5.85-51.728-10.45-16.737-4.611-32.942-10.515-47.67-18.454-14.703-7.934-27.897-17.993-37.698-30.752a86.474 86.474 0 0 1-11.943-20.993 86.366 86.366 0 0 1-2.212-6.328c2.32 0.805 4.6 1.685 6.957 2.372a230.907 230.907 0 0 0 25.244 5.915 199.102 199.102 0 0 0 26.393 2.996c2.254 0.16 4.66 0.101 7.016 0.128 2.33 0.065 4.868-0.14 7.353-0.268 2.421-0.064 5.229-0.537 7.896-0.88 2.652-0.333 5.894-1.246 8.84-1.965 8.197-2.061 15.39-8.121 18.364-16.704v-0.006a25.91 25.91 0 0 0-16.012-32.957l-3.205-1.111c-2.5-0.865-5.196-1.745-7.981-3.296-2.792-1.38-5.62-3.215-8.454-5.153-5.642-4.042-11.16-9.007-16.297-14.552-10.29-11.122-19.087-24.466-25.76-38.755a155.127 155.127 0 0 1-8.368-22.147 162.674 162.674 0 0 1-2.834-11.476 150.097 150.097 0 0 1-1.836-11.632 122.49 122.49 0 0 1-0.794-11.712 100 100 0 0 1-0.016-5.384c38.986 37.461 82.78 70.628 131.476 96.28a509.019 509.019 0 0 0 44.966 20.994 493.775 493.775 0 0 0 47.015 16.505 446.397 446.397 0 0 0 24.128 6.474 436.409 436.409 0 0 0 24.455 5.255 486.013 486.013 0 0 0 24.702 4.036c8.267 1.16 16.565 2.035 24.874 2.84a27.16 27.16 0 0 0 27.73-35.808l-0.177-0.52c-4.386-12.91-7.225-26.024-7.59-38.89-0.451-12.86 1.331-25.459 5.437-37.284 8.084-23.672 25.798-44.155 48.422-57.617 22.54-13.543 49.786-20.048 75.24-17.525 12.715 1.24 24.927 4.718 35.845 10.38 10.94 5.648 20.542 13.511 28.513 23.152l6.318 5.405a21.219 21.219 0 0 0 20.016 4.053 608.15 608.15 0 0 0 25.749-8.6c4.257-1.545 8.502-3.236 12.727-4.847 4.224-1.658 8.41-3.515 12.598-5.265 2.362-1.015 4.707-2.104 7.048-3.205a960.282 960.282 0 0 1-19.523 35.964h-0.005a9.962 9.962 0 0 0 7.944 16.21l1.991-0.043 38.036-0.821a310.613 310.613 0 0 1-20.413 21.616z" fill="#2C2C2C" /></svg>